<svg width="15" height="15" viewBox="0 0 15 15" fill="none" xmlns="http://www.w3.org/2000/svg">
<path d="M14.5801 10.3846L12.4862 8.40992C11.7384 7.70468 10.4671 7.9868 10.168 8.90358C9.94361 9.53832 9.1958 9.89093 8.52277 9.74986C7.02714 9.39724 5.00804 7.56363 4.63413 6.08264C4.40979 5.44791 4.85848 4.74267 5.53151 4.53113C6.50367 4.24903 6.8028 3.05014 6.05498 2.3449L3.9611 0.370248C3.36285 -0.123416 2.46547 -0.123416 1.942 0.370248L0.521157 1.71019C-0.89969 3.12066 0.67072 6.8584 4.18545 10.173C7.70017 13.4876 11.6636 15.0391 13.1592 13.6286L14.5801 12.2887C15.1036 11.7245 15.1036 10.8782 14.5801 10.3846Z" fill="black"/>
</svg>
