<svg width="26" height="22" viewBox="0 0 26 22" fill="none" xmlns="http://www.w3.org/2000/svg">
<path d="M9.59139 20.5166C10.1763 20.5166 10.6506 20.1004 10.6506 19.587C10.6506 19.0736 10.1763 18.6575 9.59139 18.6575C9.00643 18.6575 8.53223 19.0736 8.53223 19.587C8.53223 20.1004 9.00643 20.5166 9.59139 20.5166Z" stroke="black" stroke-width="1.5" stroke-linecap="round" stroke-linejoin="round"/>
<path d="M21.2423 20.5166C21.8272 20.5166 22.3014 20.1004 22.3014 19.587C22.3014 19.0736 21.8272 18.6575 21.2423 18.6575C20.6573 18.6575 20.1831 19.0736 20.1831 19.587C20.1831 20.1004 20.6573 20.5166 21.2423 20.5166Z" stroke="black" stroke-width="1.5" stroke-linecap="round" stroke-linejoin="round"/>
<path d="M1 1H5.23665L8.07521 13.4438C8.17206 13.8717 8.43735 14.256 8.82462 14.5296C9.21189 14.8031 9.69647 14.9484 10.1935 14.9401H20.4886C20.9857 14.9484 21.4703 14.8031 21.8575 14.5296C22.2448 14.256 22.5101 13.8717 22.6069 13.4438L24.3016 5.64669H6.29582" stroke="black" stroke-width="1.5" stroke-linecap="round" stroke-linejoin="round"/>
</svg>
