<svg width="26" height="27" viewBox="0 0 26 27" fill="none" xmlns="http://www.w3.org/2000/svg">
<rect width="25.5271" height="27" rx="4" fill="#DAEEFF"/>
<path d="M7.43317 21.646C6.78664 21.646 6.23578 21.4064 5.78057 20.9272C5.32536 20.4481 5.09775 19.8682 5.09775 19.1877H3.7915V9.5835C3.7915 9.25016 3.91025 8.9585 4.14775 8.7085C4.38525 8.4585 4.66234 8.3335 4.979 8.3335H16.4384V11.8127H18.5165L21.2082 15.5835V19.1877H19.803C19.803 19.8682 19.5754 20.4481 19.1202 20.9272C18.6649 21.4064 18.1141 21.646 17.4675 21.646C16.821 21.646 16.2702 21.4064 15.8149 20.9272C15.3597 20.4481 15.1321 19.8682 15.1321 19.1877H9.76859C9.76859 19.8682 9.54098 20.4481 9.08578 20.9272C8.63057 21.4064 8.0797 21.646 7.43317 21.646ZM7.43317 20.396C7.74984 20.396 8.02032 20.2779 8.24463 20.0418C8.46893 19.8057 8.58109 19.521 8.58109 19.1877C8.58109 18.8543 8.46893 18.5696 8.24463 18.3335C8.02032 18.0974 7.74984 17.9793 7.43317 17.9793C7.1165 17.9793 6.84602 18.0974 6.62171 18.3335C6.39741 18.5696 6.28525 18.8543 6.28525 19.1877C6.28525 19.521 6.39741 19.8057 6.62171 20.0418C6.84602 20.2779 7.1165 20.396 7.43317 20.396ZM4.979 17.9377H5.41442C5.63873 17.5627 5.92241 17.2641 6.26546 17.0418C6.60852 16.8196 6.99116 16.7085 7.41338 16.7085C7.8356 16.7085 8.22154 16.8231 8.57119 17.0522C8.92084 17.2814 9.20782 17.5766 9.43213 17.9377H15.2509V9.5835H4.979V17.9377ZM17.4675 20.396C17.7842 20.396 18.0547 20.2779 18.279 20.0418C18.5033 19.8057 18.6155 19.521 18.6155 19.1877C18.6155 18.8543 18.5033 18.5696 18.279 18.3335C18.0547 18.0974 17.7842 17.9793 17.4675 17.9793C17.1509 17.9793 16.8804 18.0974 16.6561 18.3335C16.4318 18.5696 16.3196 18.8543 16.3196 19.1877C16.3196 19.521 16.4318 19.8057 16.6561 20.0418C16.8804 20.2779 17.1509 20.396 17.4675 20.396ZM16.4384 16.146H20.1196L17.9228 13.0627H16.4384V16.146Z" fill="#0C0F86"/>
</svg>
