<svg width="80" height="81" viewBox="0 0 80 81" fill="none" xmlns="http://www.w3.org/2000/svg">
<circle cx="39.6521" cy="40.5" r="39.6521" fill="#DAEEFF"/>
<path d="M56.8732 46.0112C54.9384 46.0112 53.3643 47.5857 53.3643 49.5202C53.3643 51.455 54.9384 53.0291 56.8732 53.0291C58.8076 53.0291 60.3821 51.455 60.3821 49.5202C60.3821 47.5857 58.8076 46.0112 56.8732 46.0112ZM56.8732 50.5522C56.304 50.5522 55.8412 50.0894 55.8412 49.5202C55.8412 48.9509 56.304 48.4881 56.8732 48.4881C57.4424 48.4881 57.9052 48.9509 57.9052 49.5202C57.9052 50.0894 57.4424 50.5522 56.8732 50.5522Z" fill="#0C0F86"/>
<path d="M56.5352 31.4253H50.4726C50.0164 31.4253 49.647 31.7952 49.647 32.2509V48.3508C49.647 48.8065 50.0164 49.1764 50.4726 49.1764H51.3482C51.7569 49.1764 52.1189 48.882 52.1718 48.4767C52.4958 45.994 54.4761 44.4542 56.8717 44.4542C59.2672 44.4542 61.2475 45.9941 61.5716 48.4767C61.6244 48.8821 61.986 49.1764 62.3951 49.1764H63.2699C63.7256 49.1764 64.0955 48.8065 64.0955 48.3508V40.3008C64.0955 40.1068 64.0274 39.9194 63.9031 39.7712L57.1684 31.7213C57.0116 31.5339 56.7796 31.4253 56.5352 31.4253ZM51.2982 38.0304V33.9022C51.2982 33.4465 51.6677 33.0766 52.1239 33.0766H55.7608C56.0056 33.0766 56.238 33.1856 56.3948 33.3738L59.8348 37.5019C60.2827 38.0398 59.9005 38.856 59.2004 38.856H52.1239C51.6677 38.856 51.2982 38.4865 51.2982 38.0304Z" fill="#0C0F86"/>
<path d="M23.6391 49.1768H25.7532C26.1619 49.1768 26.5239 48.8825 26.5767 48.4771C26.9008 45.9944 28.8811 44.4547 31.2766 44.4547C33.6722 44.4547 35.6525 45.9945 35.9765 48.4771C36.0293 48.8825 36.391 49.1768 36.8001 49.1768H47.1696C47.6254 49.1768 47.9953 48.8069 47.9953 48.3512V27.7104C47.9953 27.2547 47.6254 26.8848 47.1696 26.8848H23.6391C23.1829 26.8848 22.8135 27.2547 22.8135 27.7104V48.3512C22.8135 48.807 23.1829 49.1768 23.6391 49.1768Z" fill="#0C0F86"/>
<path d="M31.2765 46.0112C29.3417 46.0112 27.7676 47.5857 27.7676 49.5202C27.7676 51.455 29.3417 53.0291 31.2765 53.0291C33.211 53.0291 34.7855 51.455 34.7855 49.5202C34.7855 47.5857 33.211 46.0112 31.2765 46.0112ZM31.2765 50.5522C30.7073 50.5522 30.2445 50.0894 30.2445 49.5202C30.2445 48.9509 30.7073 48.4881 31.2765 48.4881C31.8458 48.4881 32.3086 48.9509 32.3086 49.5202C32.3086 50.0894 31.8458 50.5522 31.2765 50.5522Z" fill="#0C0F86"/>
</svg>
