<svg width="80" height="80" viewBox="0 0 80 80" fill="none" xmlns="http://www.w3.org/2000/svg">
<circle cx="39.6521" cy="39.6521" r="39.6521" fill="#DAEEFF"/>
<path d="M59.1704 42.6559L42.0603 25.5458C41.3759 24.8614 40.4253 24.4431 39.3797 24.4431H26.0718C23.9805 24.4431 22.2695 26.1541 22.2695 28.2454V41.5533C22.2695 42.5989 22.6878 43.5495 23.3912 44.2529L40.5014 61.363C41.1858 62.0474 42.1363 62.4657 43.1819 62.4657C44.2276 62.4657 45.1781 62.0474 45.8625 61.344L59.1704 48.0361C59.8739 47.3517 60.2921 46.4011 60.2921 45.3555C60.2921 44.3099 59.8548 43.3403 59.1704 42.6559ZM43.1819 58.6824L26.0718 41.5533V28.2454H39.3797V28.2264L56.4898 45.3365L43.1819 58.6824V58.6824Z" fill="#0C0F86"/>
<path d="M30.8248 35.8496C32.3998 35.8496 33.6765 34.5729 33.6765 32.9979C33.6765 31.423 32.3998 30.1462 30.8248 30.1462C29.2499 30.1462 27.9731 31.423 27.9731 32.9979C27.9731 34.5729 29.2499 35.8496 30.8248 35.8496Z" fill="#0C0F86"/>
</svg>
