<svg width="142" height="142" viewBox="0 0 142 142" fill="none" xmlns="http://www.w3.org/2000/svg">
<path d="M71.0003 127.208C63.21 127.208 55.9128 125.729 49.1087 122.771C42.3045 119.812 36.3632 115.794 31.2847 110.716C26.2062 105.637 22.1878 99.6958 19.2295 92.8917C16.2712 86.0875 14.792 78.7903 14.792 71C14.792 63.2097 16.2712 55.9125 19.2295 49.1083C22.1878 42.3042 26.2062 36.3628 31.2847 31.2844C36.3632 26.2059 42.3045 22.1875 49.1087 19.2292C55.9128 16.2708 63.21 14.7917 71.0003 14.7917V0L94.667 23.6667L71.0003 47.3333V32.5417C60.3503 32.5417 51.2781 36.2889 43.7837 43.7833C36.2892 51.2778 32.542 60.35 32.542 71C32.542 77.5083 34.0458 83.5483 37.0534 89.1198C40.0611 94.6913 44.0795 99.2028 49.1087 102.654C50.6864 99.8931 53.0285 97.551 56.1347 95.6281C59.241 93.7052 62.8156 92.4972 66.8587 92.0042C66.5628 89.9333 66.1684 87.8625 65.6753 85.7917C65.1823 83.7208 64.5906 81.7979 63.9003 80.0229C62.8156 80.9104 61.6323 81.6007 60.3503 82.0937C59.0684 82.5868 57.6878 82.8333 56.2087 82.8333C52.9545 82.8333 50.1687 81.6747 47.8514 79.3573C45.534 77.0399 44.3753 74.2542 44.3753 71V65.0833C44.3753 63.4069 44.1041 61.8292 43.5618 60.35C43.0194 58.8708 42.3045 57.4903 41.417 56.2083C46.3475 56.1097 50.7357 56.5535 54.5816 57.5396C57.9344 58.4271 60.9913 59.8816 63.7524 61.9031C66.5135 63.9246 67.9434 66.9569 68.042 71C68.042 71.8875 67.968 72.701 67.8201 73.4406C67.6722 74.1802 67.401 74.9444 67.0066 75.7333C65.7246 74.7472 64.4427 73.8597 63.1607 73.0708C61.8788 72.2819 60.5475 71.5917 59.167 71C60.8434 72.2819 62.7663 74.2542 64.9357 76.9167C67.1052 79.5792 69.1267 82.7347 71.0003 86.3833C72.9725 81.5514 75.4378 76.7934 78.3962 72.1094C81.3545 67.4253 84.8059 63.1111 88.7503 59.1667C86.4823 60.7444 84.3128 62.4208 82.242 64.1958C80.1712 65.9708 78.1496 67.8444 76.1774 69.8167C75.4871 68.7319 74.9448 67.524 74.5503 66.1927C74.1559 64.8615 73.9587 63.5056 73.9587 62.125C73.9587 57.9833 75.3885 54.4826 78.2482 51.6229C81.108 48.7632 84.6087 47.3333 88.7503 47.3333H94.667C96.935 47.3333 98.8087 47.0375 100.288 46.4458C101.767 45.8542 103 45.1639 103.986 44.375C105.07 43.4875 105.909 42.5014 106.5 41.4167C106.895 48.0236 106.55 53.9403 105.465 59.1667C104.577 63.6042 102.901 67.6719 100.436 71.3698C97.9705 75.0677 94.0753 76.9167 88.7503 76.9167C87.2712 76.9167 85.866 76.7194 84.5347 76.325C83.2035 75.9306 81.9955 75.3882 80.9107 74.6979C80.2205 76.5715 79.4316 79.0615 78.5441 82.1677C77.6566 85.274 76.9663 88.6021 76.4732 92.1521C80.2205 92.8424 83.5239 94.1243 86.3837 95.9979C89.2434 97.8715 91.4128 100.09 92.892 102.654C97.9212 99.2028 101.94 94.716 104.947 89.1937C107.955 83.6715 109.459 77.6069 109.459 71H127.209C127.209 78.7903 125.729 86.0875 122.771 92.8917C119.813 99.6958 115.794 105.637 110.716 110.716C105.637 115.794 99.6962 119.812 92.892 122.771C86.0878 125.729 78.7906 127.208 71.0003 127.208Z" fill="#72DC60"/>
</svg>
