<svg width="24" height="25" viewBox="0 0 24 25" fill="none" xmlns="http://www.w3.org/2000/svg">
<path d="M24 12.0622C23.9984 9.75604 23.3401 7.49861 22.1029 5.55703C20.8658 3.61546 19.1015 2.07102 17.019 1.10647C14.9365 0.141927 12.6228 -0.202344 10.3518 0.114399C8.08087 0.431142 5.94763 1.39564 4.20459 2.89376C2.46154 4.39187 1.18163 6.3609 0.516338 8.56782C-0.148959 10.7747 -0.1718 13.1272 0.450518 15.3467C1.07284 17.5663 2.31426 19.5601 4.02789 21.0922C5.74152 22.6243 7.85561 23.6305 10.12 23.9918V15.5525H7.12V12.0622H10.12V9.4067C10.12 6.38909 11.92 4.7093 14.66 4.7093C15.5581 4.7224 16.4539 4.80309 17.34 4.9507V7.96831H15.83C15.5694 7.92767 15.3029 7.94716 15.0509 8.02532C14.7989 8.10347 14.5678 8.23823 14.3751 8.41943C14.1825 8.60062 14.0333 8.82349 13.9388 9.0712C13.8444 9.31891 13.8072 9.58497 13.83 9.84928V12.1125H17.2L16.67 15.6028H13.87V24.0421C16.7032 23.5925 19.2826 22.1371 21.1409 19.9394C22.9993 17.7417 24.0135 14.9472 24 12.0622V12.0622Z" fill="white"/>
</svg>
