<svg width="26" height="27" viewBox="0 0 26 27" fill="none" xmlns="http://www.w3.org/2000/svg">
<rect width="25.5271" height="27" rx="4" fill="#DAEEFF"/>
<path d="M13.0002 21.4998C11.0974 21.4998 9.51058 20.8262 8.23975 19.479C6.96891 18.1318 6.3335 16.5415 6.3335 14.7082V8.1665C6.3335 7.83317 6.4585 7.5415 6.7085 7.2915C6.9585 7.0415 7.25016 6.9165 7.5835 6.9165H18.2085C18.5418 6.9165 18.8335 7.0415 19.0835 7.2915C19.3335 7.5415 19.4585 7.83317 19.4585 8.1665V10.0415C19.4585 10.2359 19.4238 10.42 19.3543 10.5936C19.2849 10.7672 19.1807 10.9234 19.0418 11.0623L14.2293 15.8748C13.9516 16.1526 13.6078 16.2915 13.1981 16.2915C12.7884 16.2915 12.4446 16.1526 12.1668 15.8748L9.9585 13.6665L10.8335 12.7707L13.2085 15.1248L18.2085 10.1248V8.1665H7.5835V14.7082C7.5835 16.1943 8.10433 17.4859 9.146 18.5832C10.1877 19.6804 11.4724 20.229 13.0002 20.229C14.4724 20.229 15.7293 19.7255 16.771 18.7186C17.8127 17.7116 18.3613 16.4859 18.4168 15.0415H19.6668C19.6113 16.8471 18.9446 18.3748 17.6668 19.6248C16.3891 20.8748 14.8335 21.4998 13.0002 21.4998Z" fill="#0C0F86"/>
</svg>
