<svg width="80" height="80" viewBox="0 0 80 80" fill="none" xmlns="http://www.w3.org/2000/svg">
<circle cx="39.6521" cy="39.6521" r="39.6521" fill="#DAEEFF"/>
<path d="M34.9451 41.8477L40.1958 37.8644L45.4239 41.8477L43.4323 35.3975L48.683 31.2331H42.2554L40.1958 24.8734L38.1363 31.2331H31.7086L36.9367 35.3975L34.9451 41.8477ZM58.3018 33.4964C58.3018 23.4928 50.1994 15.3904 40.1958 15.3904C30.1923 15.3904 22.0898 23.4928 22.0898 33.4964C22.0898 38.0908 23.8099 42.2551 26.6163 45.4463V62.9186L40.1958 58.3921L53.7753 62.9186V45.4463C56.5817 42.2551 58.3018 38.0908 58.3018 33.4964ZM40.1958 19.9169C47.6872 19.9169 53.7753 26.005 53.7753 33.4964C53.7753 40.9877 47.6872 47.0759 40.1958 47.0759C32.7045 47.0759 26.6163 40.9877 26.6163 33.4964C26.6163 26.005 32.7045 19.9169 40.1958 19.9169ZM40.1958 53.8656L31.1428 56.1741V49.158C33.8135 50.697 36.8915 51.6023 40.1958 51.6023C43.5002 51.6023 46.5782 50.697 49.2488 49.158V56.1741L40.1958 53.8656Z" fill="#0C0F86"/>
</svg>
