<svg width="26" height="27" viewBox="0 0 26 27" fill="none" xmlns="http://www.w3.org/2000/svg">
<rect width="25.5271" height="27" rx="4" fill="#DAEEFF"/>
<path d="M12.4373 17.1665H13.6873V12.1665H12.4373V17.1665ZM12.9998 10.6248C13.1943 10.6248 13.3575 10.5623 13.4894 10.4373C13.6214 10.3123 13.6873 10.1526 13.6873 9.95817C13.6873 9.76373 13.6214 9.59706 13.4894 9.45817C13.3575 9.31928 13.1943 9.24984 12.9998 9.24984C12.8054 9.24984 12.6422 9.31928 12.5103 9.45817C12.3783 9.59706 12.3123 9.76373 12.3123 9.95817C12.3123 10.1526 12.3783 10.3123 12.5103 10.4373C12.6422 10.5623 12.8054 10.6248 12.9998 10.6248ZM12.9998 21.3332C11.8193 21.3332 10.7221 21.1214 9.70817 20.6978C8.69428 20.2741 7.81234 19.6873 7.06234 18.9373C6.31234 18.1873 5.72553 17.3054 5.30192 16.2915C4.87831 15.2776 4.6665 14.1804 4.6665 12.9998C4.6665 11.8332 4.87831 10.7429 5.30192 9.729C5.72553 8.71511 6.31234 7.83317 7.06234 7.08317C7.81234 6.33317 8.69428 5.74289 9.70817 5.31234C10.7221 4.88178 11.8193 4.6665 12.9998 4.6665C14.1665 4.6665 15.2568 4.88178 16.2707 5.31234C17.2846 5.74289 18.1665 6.33317 18.9165 7.08317C19.6665 7.83317 20.2568 8.71511 20.6873 9.729C21.1179 10.7429 21.3332 11.8332 21.3332 12.9998C21.3332 14.1804 21.1179 15.2776 20.6873 16.2915C20.2568 17.3054 19.6665 18.1873 18.9165 18.9373C18.1665 19.6873 17.2846 20.2741 16.2707 20.6978C15.2568 21.1214 14.1665 21.3332 12.9998 21.3332ZM12.9998 20.0832C14.9443 20.0832 16.6109 19.3887 17.9998 17.9998C19.3887 16.6109 20.0832 14.9443 20.0832 12.9998C20.0832 11.0554 19.3887 9.38873 17.9998 7.99984C16.6109 6.61095 14.9443 5.9165 12.9998 5.9165C11.0554 5.9165 9.38873 6.61095 7.99984 7.99984C6.61095 9.38873 5.9165 11.0554 5.9165 12.9998C5.9165 14.9443 6.61095 16.6109 7.99984 17.9998C9.38873 19.3887 11.0554 20.0832 12.9998 20.0832Z" fill="#0C0F86"/>
</svg>
