<svg width="436" height="118" viewBox="0 0 436 118" fill="none" xmlns="http://www.w3.org/2000/svg">
<path d="M264.477 60.656L420.484 60.656L420.484 53.0741L264.477 53.0741L264.477 60.656Z" fill="#0C0F86"/>
<path d="M169.414 53.0742H15.8442V60.6562H169.414V53.0742Z" fill="#0C0F86"/>
<path d="M205.973 12.637C198.662 12.637 191.349 12.637 184.039 12.637C184.039 21.9029 184.039 31.1687 184.039 40.4374C186.606 39.9606 192.686 38.4503 197.99 33.1448C206.032 25.0916 206.01 14.5827 205.973 12.637Z" fill="#67A9E2"/>
<path d="M185.259 45.0536C185.259 50.2421 185.259 55.4278 185.259 60.6163C185.736 60.6709 188.854 60.9697 191.361 58.4702C193.441 56.396 193.734 53.7615 193.79 53.1036C193.79 49.3027 193.79 45.5018 193.79 41.7009C192.972 42.4623 191.561 43.5798 189.555 44.3182C187.811 44.956 186.278 45.0651 185.259 45.0536Z" fill="#6AAAE2"/>
<path d="M227.921 12.637C235.232 12.637 242.545 12.637 249.855 12.637C249.855 21.9029 249.855 31.1687 249.855 40.4374C247.288 39.9606 241.208 38.4503 235.904 33.1448C227.862 25.0944 227.884 14.5827 227.921 12.637Z" fill="#67A9E2"/>
<path d="M249.855 45.0536C249.855 50.2421 249.855 55.4278 249.855 60.6163C249.377 60.6709 246.26 60.9697 243.753 58.4702C241.673 56.396 241.379 53.7615 241.323 53.1036C241.323 49.3027 241.323 45.5018 241.323 41.7009C242.142 42.4623 243.553 43.5798 245.558 44.3182C247.303 44.9588 248.836 45.068 249.855 45.0536Z" fill="#6AAAE2"/>
<path d="M250.638 8.84559H183.259C180.999 8.84559 179.166 6.86476 179.166 4.4228C179.166 1.98083 180.999 0 183.259 0H250.638C252.898 0 254.731 1.98083 254.731 4.4228C254.734 6.86476 252.901 8.84559 250.638 8.84559Z" fill="#0C0F86"/>
<path d="M425.973 65.7109C431.022 65.7109 435.114 61.4678 435.114 56.2335C435.114 50.9993 431.022 46.7561 425.973 46.7561C420.925 46.7561 416.832 50.9993 416.832 56.2335C416.832 61.4678 420.925 65.7109 425.973 65.7109Z" fill="#0C0F86"/>
<path d="M9.75044 65.7109C15.1355 65.7109 19.5009 61.4678 19.5009 56.2335C19.5009 50.9993 15.1355 46.7561 9.75044 46.7561C4.36542 46.7561 0 50.9993 0 56.2335C0 61.4678 4.36542 65.7109 9.75044 65.7109Z" fill="#0C0F86"/>
<path d="M40.6736 97.0489V85.0489C40.6736 81.3289 40.6136 77.9089 40.4936 74.7889C34.8136 74.7889 31.0136 74.8689 29.0936 75.0289C28.9736 74.6689 28.9136 74.1289 28.9136 73.4089C28.9136 72.6089 29.1136 72.0689 29.5136 71.7889C29.9536 71.5089 30.6336 71.3489 31.5536 71.3089C32.5536 71.2689 34.6936 71.2489 37.9736 71.2489H45.0536C51.3736 71.2489 55.2336 71.1889 56.6336 71.0689C56.7536 71.4289 56.8136 71.9489 56.8136 72.6289C56.8136 73.4289 56.5936 73.9689 56.1536 74.2489C55.7536 74.5289 55.0936 74.6889 54.1736 74.7289C52.9336 74.7689 50.0736 74.7889 45.5936 74.7889C45.3136 80.5089 45.1736 84.4689 45.1736 86.6689V98.7289C45.1736 104.129 45.5536 108.089 46.3136 110.609C45.5936 110.929 44.6536 111.089 43.4936 111.089C42.3336 111.089 41.5536 110.829 41.1536 110.309C40.7536 109.789 40.5536 108.909 40.5536 107.669C40.5536 107.029 40.5736 105.449 40.6136 102.929C40.6536 100.409 40.6736 98.4489 40.6736 97.0489ZM62.6243 100.109V90.7489C62.6243 86.5889 62.5043 82.9889 62.2643 79.9489C62.9843 79.8289 63.7443 79.7689 64.5443 79.7689C66.4243 79.7689 67.3643 80.3689 67.3643 81.5689C67.3643 81.7289 67.3243 82.3689 67.2443 83.4889C67.1643 84.6089 67.0843 86.0089 67.0043 87.6889C66.9643 89.3689 66.9443 90.9689 66.9443 92.4889C68.6243 92.5289 71.1443 92.5489 74.5043 92.5489C77.7443 92.5489 80.1843 92.5289 81.8243 92.4889V90.5689C81.7843 86.3689 81.6643 82.8289 81.4643 79.9489C82.1843 79.8289 82.9443 79.7689 83.7443 79.7689C85.6243 79.7689 86.5643 80.3689 86.5643 81.5689C86.5643 81.7289 86.5243 82.3489 86.4443 83.4289C86.3643 84.5089 86.2843 85.8489 86.2043 87.4489C86.1643 89.0489 86.1443 90.5689 86.1443 92.0089V101.429C86.1443 105.629 86.4643 108.709 87.1043 110.669C86.5043 110.909 85.6243 111.029 84.4643 111.029C83.3843 111.029 82.6443 110.829 82.2443 110.429C81.8843 110.029 81.7043 109.349 81.7043 108.389C81.7043 107.909 81.7243 106.689 81.7643 104.729C81.8043 102.769 81.8243 101.229 81.8243 100.109V95.6689C80.1443 95.7089 77.6843 95.7289 74.4443 95.7289C71.0843 95.7289 68.5843 95.7089 66.9443 95.6689V101.429C66.9443 105.629 67.2643 108.709 67.9043 110.669C67.3043 110.909 66.4243 111.029 65.2643 111.029C64.1843 111.029 63.4443 110.829 63.0443 110.429C62.6843 110.029 62.5043 109.349 62.5043 108.389C62.5043 107.909 62.5243 106.689 62.5643 104.729C62.6043 102.769 62.6243 101.229 62.6243 100.109ZM101.741 83.3089C101.861 84.2689 101.921 87.3689 101.921 92.6089H105.761C108.441 92.6089 110.361 92.5489 111.521 92.4289C111.641 92.7489 111.701 93.1889 111.701 93.7489C111.701 94.5489 111.521 95.1089 111.161 95.4289C110.841 95.7089 110.321 95.8689 109.601 95.9089C108.761 95.9489 107.621 95.9689 106.181 95.9689H101.921C101.921 102.409 102.041 106.289 102.281 107.609C103.721 107.689 104.881 107.729 105.761 107.729C111.041 107.729 114.501 107.369 116.141 106.649C116.421 107.369 116.561 108.129 116.561 108.929C116.561 109.569 116.401 110.029 116.081 110.309C115.481 110.749 112.761 110.969 107.921 110.969C106.961 110.969 105.421 110.949 103.301 110.909C101.181 110.909 100.081 110.909 100.001 110.909C99.0005 110.869 98.3205 110.649 97.9605 110.249C97.6405 109.849 97.4805 109.189 97.4805 108.269C97.4805 107.709 97.5005 106.489 97.5405 104.609C97.5805 102.689 97.6005 101.189 97.6005 100.109V90.9289C97.6005 86.3689 97.3605 82.7889 96.8805 80.1889C100.801 79.9089 104.461 79.7689 107.861 79.7689C112.701 79.7689 115.421 80.0089 116.021 80.4889C116.341 80.7689 116.501 81.2289 116.501 81.8689C116.501 82.6689 116.361 83.4289 116.081 84.1489C114.161 83.5089 111.161 83.1889 107.081 83.1889C105.521 83.1889 103.741 83.2289 101.741 83.3089ZM147.865 92.6689C150.585 92.6689 152.705 91.8889 154.225 90.3289C155.785 88.7289 156.565 86.5889 156.565 83.9089C156.565 80.2289 155.705 77.6889 153.985 76.2889C152.265 74.8889 149.585 74.1889 145.945 74.1889C144.905 74.1889 143.465 74.2689 141.625 74.4289C141.785 76.7489 141.865 80.8289 141.865 86.6689V91.1689C143.625 92.1689 145.625 92.6689 147.865 92.6689ZM137.365 97.0489V85.0489C137.365 79.5289 137.105 74.9289 136.585 71.2489C139.545 70.7689 142.525 70.5289 145.525 70.5289C156.245 70.5289 161.605 74.8489 161.605 83.4889C161.605 87.6489 160.345 90.8289 157.825 93.0289C155.345 95.2289 152.425 96.3289 149.065 96.3289C146.225 96.3289 143.825 95.6889 141.865 94.4089V98.7289C141.865 104.129 142.245 108.089 143.005 110.609C142.285 110.929 141.345 111.089 140.185 111.089C139.025 111.089 138.245 110.829 137.845 110.309C137.445 109.789 137.245 108.909 137.245 107.669C137.245 107.029 137.265 105.449 137.305 102.929C137.345 100.409 137.365 98.4489 137.365 97.0489ZM180.979 111.329C176.339 111.329 172.639 109.889 169.879 107.009C167.119 104.129 165.739 100.269 165.739 95.4289C165.739 90.5489 167.119 86.6689 169.879 83.7889C172.639 80.9089 176.339 79.4689 180.979 79.4689C185.659 79.4689 189.379 80.9089 192.139 83.7889C194.939 86.6689 196.339 90.5489 196.339 95.4289C196.339 100.269 194.939 104.129 192.139 107.009C189.379 109.889 185.659 111.329 180.979 111.329ZM191.539 96.2689C191.539 93.9889 191.219 91.8689 190.579 89.9089C189.939 87.9489 188.779 86.2689 187.099 84.8689C185.459 83.4689 183.439 82.7689 181.039 82.7689C177.799 82.7689 175.219 83.8289 173.299 85.9489C171.419 88.0689 170.479 90.7689 170.479 94.0489C170.479 96.4489 170.799 98.6689 171.439 100.709C172.079 102.749 173.219 104.489 174.859 105.929C176.499 107.369 178.539 108.089 180.979 108.089C184.339 108.089 186.939 107.009 188.779 104.849C190.619 102.649 191.539 99.7889 191.539 96.2689ZM204.526 100.469V90.7489C204.526 86.5889 204.406 82.9689 204.166 79.8889C204.806 79.8089 205.586 79.7689 206.506 79.7689C208.346 79.7689 209.266 80.3689 209.266 81.5689C209.266 81.7289 209.226 82.3489 209.146 83.4289C209.106 84.5089 209.046 85.8489 208.966 87.4489C208.886 89.0489 208.846 90.5689 208.846 92.0089V96.1489C208.846 102.469 208.966 106.289 209.206 107.609C210.566 107.689 211.626 107.729 212.386 107.729C217.386 107.729 220.626 107.369 222.106 106.649C222.346 107.409 222.466 108.169 222.466 108.929C222.466 109.569 222.326 110.029 222.046 110.309C221.446 110.749 218.866 110.969 214.306 110.969C213.426 110.969 211.966 110.949 209.926 110.909C207.926 110.909 206.866 110.909 206.746 110.909C205.826 110.869 205.206 110.649 204.886 110.249C204.566 109.849 204.406 109.189 204.406 108.269C204.406 107.789 204.426 106.649 204.466 104.849C204.506 103.049 204.526 101.589 204.526 100.469ZM232.229 83.3089C232.349 84.2689 232.409 87.3689 232.409 92.6089H236.249C238.929 92.6089 240.849 92.5489 242.009 92.4289C242.129 92.7489 242.189 93.1889 242.189 93.7489C242.189 94.5489 242.009 95.1089 241.649 95.4289C241.329 95.7089 240.809 95.8689 240.089 95.9089C239.249 95.9489 238.109 95.9689 236.669 95.9689H232.409C232.409 102.409 232.529 106.289 232.769 107.609C234.209 107.689 235.369 107.729 236.249 107.729C241.529 107.729 244.989 107.369 246.629 106.649C246.909 107.369 247.049 108.129 247.049 108.929C247.049 109.569 246.889 110.029 246.569 110.309C245.969 110.749 243.249 110.969 238.409 110.969C237.449 110.969 235.909 110.949 233.789 110.909C231.669 110.909 230.569 110.909 230.489 110.909C229.489 110.869 228.809 110.649 228.449 110.249C228.129 109.849 227.969 109.189 227.969 108.269C227.969 107.709 227.989 106.489 228.029 104.609C228.069 102.689 228.089 101.189 228.089 100.109V90.9289C228.089 86.3689 227.849 82.7889 227.369 80.1889C231.289 79.9089 234.949 79.7689 238.349 79.7689C243.189 79.7689 245.909 80.0089 246.509 80.4889C246.829 80.7689 246.989 81.2289 246.989 81.8689C246.989 82.6689 246.849 83.4289 246.569 84.1489C244.649 83.5089 241.649 83.1889 237.569 83.1889C236.009 83.1889 234.229 83.2289 232.229 83.3089ZM287.173 78.9289C286.493 77.6089 285.273 76.5289 283.513 75.6889C281.753 74.8089 279.933 74.3689 278.053 74.3689C276.013 74.3689 274.293 74.9289 272.893 76.0489C271.533 77.1689 270.853 78.8089 270.853 80.9689C270.853 82.6089 271.353 83.9689 272.353 85.0489C273.393 86.0889 274.673 86.8289 276.193 87.2689C277.713 87.6689 279.373 88.1689 281.173 88.7689C282.973 89.3689 284.633 89.9889 286.153 90.6289C287.673 91.2689 288.933 92.3689 289.933 93.9289C290.973 95.4889 291.493 97.4289 291.493 99.7489C291.493 101.829 291.093 103.669 290.293 105.269C289.493 106.829 288.413 108.049 287.053 108.929C285.693 109.809 284.213 110.469 282.613 110.909C281.053 111.309 279.393 111.509 277.633 111.509C274.513 111.509 271.753 110.969 269.353 109.889C266.993 108.769 265.813 107.429 265.813 105.869C265.813 105.349 265.973 104.889 266.293 104.489C266.653 104.049 266.993 103.729 267.313 103.529C267.633 103.329 268.153 103.049 268.873 102.689C269.633 104.169 270.993 105.389 272.953 106.349C274.953 107.269 276.973 107.729 279.013 107.729C281.253 107.729 283.173 107.129 284.773 105.929C286.373 104.689 287.173 102.929 287.173 100.649C287.173 98.7689 286.453 97.2889 285.013 96.2089C283.613 95.0889 281.893 94.2489 279.853 93.6889C277.853 93.1289 275.833 92.5089 273.793 91.8289C271.793 91.1489 270.073 90.0089 268.633 88.4089C267.233 86.7689 266.533 84.6089 266.533 81.9289C266.533 78.2489 267.733 75.4289 270.133 73.4689C272.573 71.5089 275.673 70.5289 279.433 70.5289C282.193 70.5289 284.733 71.0089 287.053 71.9689C289.413 72.9289 290.593 74.2489 290.593 75.9289C290.593 77.5289 289.453 78.5289 287.173 78.9289ZM304.608 100.109V90.7489C304.608 88.9089 304.568 86.4289 304.488 83.3089C299.808 83.3089 296.708 83.3689 295.188 83.4889C295.108 83.2889 295.068 82.7889 295.068 81.9889C295.068 81.2689 295.228 80.7689 295.548 80.4889C295.908 80.2089 296.468 80.0689 297.228 80.0689C297.548 80.0689 298.328 80.0689 299.568 80.0689C300.848 80.0289 301.888 80.0089 302.688 80.0089H308.508C313.828 80.0089 317.068 79.9689 318.228 79.8889C318.308 80.2889 318.348 80.7689 318.348 81.3289C318.348 82.6489 317.628 83.3089 316.188 83.3089H309.228C309.228 83.7489 309.188 84.5089 309.108 85.5889C309.068 86.6289 309.028 87.7089 308.988 88.8289C308.948 89.9489 308.928 91.0089 308.928 92.0089V101.429C308.928 105.629 309.248 108.709 309.888 110.669C309.288 110.909 308.408 111.029 307.248 111.029C306.168 111.029 305.428 110.829 305.028 110.429C304.668 110.029 304.488 109.349 304.488 108.389C304.488 107.909 304.508 106.689 304.548 104.729C304.588 102.769 304.608 101.229 304.608 100.109ZM336.194 111.329C331.554 111.329 327.854 109.889 325.094 107.009C322.334 104.129 320.954 100.269 320.954 95.4289C320.954 90.5489 322.334 86.6689 325.094 83.7889C327.854 80.9089 331.554 79.4689 336.194 79.4689C340.874 79.4689 344.594 80.9089 347.354 83.7889C350.154 86.6689 351.554 90.5489 351.554 95.4289C351.554 100.269 350.154 104.129 347.354 107.009C344.594 109.889 340.874 111.329 336.194 111.329ZM346.754 96.2689C346.754 93.9889 346.434 91.8689 345.794 89.9089C345.154 87.9489 343.994 86.2689 342.314 84.8689C340.674 83.4689 338.654 82.7689 336.254 82.7689C333.014 82.7689 330.434 83.8289 328.514 85.9489C326.634 88.0689 325.694 90.7689 325.694 94.0489C325.694 96.4489 326.014 98.6689 326.654 100.709C327.294 102.749 328.434 104.489 330.074 105.929C331.714 107.369 333.754 108.089 336.194 108.089C339.554 108.089 342.154 107.009 343.994 104.849C345.834 102.649 346.754 99.7889 346.754 96.2689ZM377.861 106.709C378.741 107.589 379.701 108.029 380.741 108.029C380.941 108.029 381.361 107.989 382.001 107.909C382.281 108.469 382.421 108.989 382.421 109.469C382.421 110.709 381.121 111.329 378.521 111.329C377.361 111.329 376.241 110.909 375.161 110.069C374.081 109.189 373.041 107.949 372.041 106.349C371.041 104.709 370.261 103.349 369.701 102.269C369.181 101.149 368.541 99.7289 367.781 98.0089C367.021 97.8489 366.641 97.4489 366.641 96.8089C366.641 96.4089 366.781 95.8089 367.061 95.0089C367.941 95.2089 368.701 95.3089 369.341 95.3089C371.181 95.3089 372.681 94.7489 373.841 93.6289C375.001 92.4689 375.581 90.9089 375.581 88.9489C375.581 86.6289 374.941 85.0089 373.661 84.0889C372.381 83.1689 370.421 82.7089 367.781 82.7089C367.541 82.7089 366.341 82.7689 364.181 82.8889C364.341 84.7289 364.421 87.8689 364.421 92.3089V101.549C364.421 105.709 364.721 108.769 365.321 110.729C364.641 110.929 363.761 111.029 362.681 111.029C361.601 111.029 360.861 110.829 360.461 110.429C360.101 110.029 359.921 109.349 359.921 108.389C359.921 107.909 359.941 106.689 359.981 104.729C360.021 102.769 360.041 101.229 360.041 100.109V90.7489C360.041 86.3489 359.821 82.7689 359.381 80.0089C361.541 79.6489 364.061 79.4689 366.941 79.4689C375.901 79.4689 380.381 82.6089 380.381 88.8889C380.381 91.3689 379.661 93.3889 378.221 94.9489C376.821 96.5089 374.941 97.5489 372.581 98.0689C375.021 102.749 376.781 105.629 377.861 106.709ZM394.006 83.3089C394.126 84.2689 394.186 87.3689 394.186 92.6089H398.026C400.706 92.6089 402.626 92.5489 403.786 92.4289C403.906 92.7489 403.966 93.1889 403.966 93.7489C403.966 94.5489 403.786 95.1089 403.426 95.4289C403.106 95.7089 402.586 95.8689 401.866 95.9089C401.026 95.9489 399.886 95.9689 398.446 95.9689H394.186C394.186 102.409 394.306 106.289 394.546 107.609C395.986 107.689 397.146 107.729 398.026 107.729C403.306 107.729 406.766 107.369 408.406 106.649C408.686 107.369 408.826 108.129 408.826 108.929C408.826 109.569 408.666 110.029 408.346 110.309C407.746 110.749 405.026 110.969 400.186 110.969C399.226 110.969 397.686 110.949 395.566 110.909C393.446 110.909 392.346 110.909 392.266 110.909C391.266 110.869 390.586 110.649 390.226 110.249C389.906 109.849 389.746 109.189 389.746 108.269C389.746 107.709 389.766 106.489 389.806 104.609C389.846 102.689 389.866 101.189 389.866 100.109V90.9289C389.866 86.3689 389.626 82.7889 389.146 80.1889C393.066 79.9089 396.726 79.7689 400.126 79.7689C404.966 79.7689 407.686 80.0089 408.286 80.4889C408.606 80.7689 408.766 81.2289 408.766 81.8689C408.766 82.6689 408.626 83.4289 408.346 84.1489C406.426 83.5089 403.426 83.1889 399.346 83.1889C397.786 83.1889 396.006 83.2289 394.006 83.3089Z" fill="#0C0F86"/>
</svg>
