<svg width="219" height="12" viewBox="0 0 219 12" fill="none" xmlns="http://www.w3.org/2000/svg">
<path d="M0.666667 6C0.666667 8.94552 3.05448 11.3333 6 11.3333C8.94552 11.3333 11.3333 8.94552 11.3333 6C11.3333 3.05448 8.94552 0.666667 6 0.666667C3.05448 0.666667 0.666667 3.05448 0.666667 6ZM207.658 6C207.658 8.94552 210.045 11.3333 212.991 11.3333C215.937 11.3333 218.324 8.94552 218.324 6C218.324 3.05448 215.937 0.666667 212.991 0.666667C210.045 0.666667 207.658 3.05448 207.658 6ZM6 7H212.991V5H6V7Z" fill="white"/>
</svg>
