<svg width="20" height="19" viewBox="0 0 20 19" fill="none" xmlns="http://www.w3.org/2000/svg">
<path d="M9.92222 18C14.8498 18 18.8444 14.1944 18.8444 9.5C18.8444 4.80558 14.8498 1 9.92222 1C4.99461 1 1 4.80558 1 9.5C1 14.1944 4.99461 18 9.92222 18Z" stroke="#C60303" stroke-width="2" stroke-linecap="round" stroke-linejoin="round"/>
<path d="M7.32617 6.9499C7.53594 6.38182 7.94997 5.90279 8.49494 5.59766C9.03991 5.29253 9.68065 5.181 10.3037 5.2828C10.9267 5.38461 11.4918 5.69319 11.8989 6.1539C12.306 6.6146 12.5288 7.19769 12.5278 7.7999C12.5278 9.4999 9.85116 10.3499 9.85116 10.3499" stroke="#C60303" stroke-width="2" stroke-linecap="round" stroke-linejoin="round"/>
<path d="M9.92188 13.75H9.93093" stroke="#C60303" stroke-width="2" stroke-linecap="round" stroke-linejoin="round"/>
</svg>
