<svg width="142" height="142" viewBox="0 0 142 142" fill="none" xmlns="http://www.w3.org/2000/svg">
<path d="M64.492 90.6729L98.217 56.9479L92.0045 50.8833L64.9357 77.9521L49.9962 63.0125L43.4878 69.5208L64.492 90.6729ZM71.0003 130.019C57.1948 126.567 45.8545 118.555 36.9795 105.982C28.1045 93.4094 23.667 79.6285 23.667 64.6396V29.4354L71.0003 11.6854L118.334 29.4354V64.6396C118.334 79.6285 113.896 93.4094 105.021 105.982C96.1462 118.555 84.8059 126.567 71.0003 130.019ZM71.0003 120.848C82.3406 117.101 91.5854 110.025 98.7347 99.6219C105.884 89.2184 109.459 77.5576 109.459 64.6396V35.6479L71.0003 21.1521L32.542 35.6479V64.6396C32.542 77.5576 36.1166 89.2184 43.266 99.6219C50.4153 110.025 59.66 117.101 71.0003 120.848Z" fill="#72DC60"/>
</svg>
