<svg width="323" height="74" viewBox="0 0 323 74" fill="none" xmlns="http://www.w3.org/2000/svg">
<path d="M189 36L282 36L282 31L189 31L189 36Z" fill="white"/>
<path d="M132 31H40V36H132V31Z" fill="white"/>
<path d="M153.997 8C149.665 8 145.332 8 141 8C141 13.3328 141 18.6656 141 24C142.521 23.7256 146.124 22.8563 149.267 19.8029C154.032 15.168 154.019 9.11986 153.997 8Z" fill="white"/>
<path d="M141 26.9457C141 29.9567 141 32.9661 141 35.9771C141.28 36.0088 143.107 36.1822 144.576 34.7317C145.795 33.5279 145.967 31.9991 146 31.6173C146 29.4115 146 27.2058 146 25C145.52 25.4418 144.693 26.0904 143.518 26.5189C142.496 26.889 141.597 26.9523 141 26.9457Z" fill="white"/>
<path d="M167.003 8C171.335 8 175.668 8 180 8C180 13.3328 180 18.6656 180 24C178.479 23.7256 174.876 22.8563 171.733 19.8029C166.968 15.1696 166.981 9.11986 167.003 8Z" fill="white"/>
<path d="M180 26.9457C180 29.9567 180 32.9661 180 35.9771C179.72 36.0088 177.893 36.1822 176.424 34.7317C175.205 33.5279 175.033 31.9991 175 31.6173C175 29.4115 175 27.2058 175 25C175.48 25.4418 176.307 26.0904 177.482 26.5189C178.504 26.8906 179.403 26.954 180 26.9457Z" fill="white"/>
<path d="M180.562 5H140.438C139.092 5 138 3.88033 138 2.5C138 1.11967 139.092 0 140.438 0H180.562C181.908 0 183 1.11967 183 2.5C183.002 3.88033 181.91 5 180.562 5Z" fill="white"/>
<path d="M284.5 39C287.538 39 290 36.5376 290 33.5C290 30.4624 287.538 28 284.5 28C281.462 28 279 30.4624 279 33.5C279 36.5376 281.462 39 284.5 39Z" fill="white"/>
<path d="M36.5 39C39.5376 39 42 36.5376 42 33.5C42 30.4624 39.5376 28 36.5 28C33.4624 28 31 30.4624 31 33.5C31 36.5376 33.4624 39 36.5 39Z" fill="white"/>
<path d="M41.9572 63.76V55.76C41.9572 53.28 41.9172 51 41.8372 48.92C38.0505 48.92 35.5172 48.9733 34.2372 49.08C34.1572 48.84 34.1172 48.48 34.1172 48C34.1172 47.4667 34.2505 47.1067 34.5172 46.92C34.8105 46.7333 35.2639 46.6267 35.8772 46.6C36.5439 46.5733 37.9705 46.56 40.1572 46.56H44.8772C49.0905 46.56 51.6639 46.52 52.5972 46.44C52.6772 46.68 52.7172 47.0267 52.7172 47.48C52.7172 48.0133 52.5705 48.3733 52.2772 48.56C52.0105 48.7467 51.5705 48.8533 50.9572 48.88C50.1305 48.9067 48.2239 48.92 45.2372 48.92C45.0505 52.7333 44.9572 55.3733 44.9572 56.84V64.88C44.9572 68.48 45.2105 71.12 45.7172 72.8C45.2372 73.0133 44.6105 73.12 43.8372 73.12C43.0639 73.12 42.5439 72.9467 42.2772 72.6C42.0105 72.2533 41.8772 71.6667 41.8772 70.84C41.8772 70.4133 41.8905 69.36 41.9172 67.68C41.9439 66 41.9572 64.6933 41.9572 63.76ZM56.5909 65.8V59.56C56.5909 56.7867 56.5109 54.3867 56.3509 52.36C56.8309 52.28 57.3376 52.24 57.8709 52.24C59.1243 52.24 59.7509 52.64 59.7509 53.44C59.7509 53.5467 59.7243 53.9733 59.6709 54.72C59.6176 55.4667 59.5643 56.4 59.5109 57.52C59.4843 58.64 59.4709 59.7067 59.4709 60.72C60.5909 60.7467 62.2709 60.76 64.5109 60.76C66.6709 60.76 68.2976 60.7467 69.3909 60.72V59.44C69.3643 56.64 69.2843 54.28 69.1509 52.36C69.6309 52.28 70.1376 52.24 70.6709 52.24C71.9243 52.24 72.5509 52.64 72.5509 53.44C72.5509 53.5467 72.5243 53.96 72.4709 54.68C72.4176 55.4 72.3643 56.2933 72.3109 57.36C72.2843 58.4267 72.2709 59.44 72.2709 60.4V66.68C72.2709 69.48 72.4843 71.5333 72.9109 72.84C72.5109 73 71.9243 73.08 71.1509 73.08C70.4309 73.08 69.9376 72.9467 69.6709 72.68C69.4309 72.4133 69.3109 71.96 69.3109 71.32C69.3109 71 69.3243 70.1867 69.3509 68.88C69.3776 67.5733 69.3909 66.5467 69.3909 65.8V62.84C68.2709 62.8667 66.6309 62.88 64.4709 62.88C62.2309 62.88 60.5643 62.8667 59.4709 62.84V66.68C59.4709 69.48 59.6843 71.5333 60.1109 72.84C59.7109 73 59.1243 73.08 58.3509 73.08C57.6309 73.08 57.1376 72.9467 56.8709 72.68C56.6309 72.4133 56.5109 71.96 56.5109 71.32C56.5109 71 56.5243 70.1867 56.5509 68.88C56.5776 67.5733 56.5909 66.5467 56.5909 65.8ZM82.6684 54.6C82.7484 55.24 82.7884 57.3067 82.7884 60.8H85.3484C87.1351 60.8 88.4151 60.76 89.1884 60.68C89.2684 60.8933 89.3084 61.1867 89.3084 61.56C89.3084 62.0933 89.1884 62.4667 88.9484 62.68C88.7351 62.8667 88.3884 62.9733 87.9084 63C87.3484 63.0267 86.5884 63.04 85.6284 63.04H82.7884C82.7884 67.3333 82.8684 69.92 83.0284 70.8C83.9884 70.8533 84.7618 70.88 85.3484 70.88C88.8684 70.88 91.1751 70.64 92.2684 70.16C92.4551 70.64 92.5484 71.1467 92.5484 71.68C92.5484 72.1067 92.4418 72.4133 92.2284 72.6C91.8284 72.8933 90.0151 73.04 86.7884 73.04C86.1484 73.04 85.1218 73.0267 83.7084 73C82.2951 73 81.5618 73 81.5084 73C80.8418 72.9733 80.3884 72.8267 80.1484 72.56C79.9351 72.2933 79.8284 71.8533 79.8284 71.24C79.8284 70.8667 79.8418 70.0533 79.8684 68.8C79.8951 67.52 79.9084 66.52 79.9084 65.8V59.68C79.9084 56.64 79.7484 54.2533 79.4284 52.52C82.0418 52.3333 84.4818 52.24 86.7484 52.24C89.9751 52.24 91.7884 52.4 92.1884 52.72C92.4018 52.9067 92.5084 53.2133 92.5084 53.64C92.5084 54.1733 92.4151 54.68 92.2284 55.16C90.9484 54.7333 88.9484 54.52 86.2284 54.52C85.1884 54.52 84.0018 54.5467 82.6684 54.6ZM113.418 60.84C115.231 60.84 116.644 60.32 117.658 59.28C118.698 58.2133 119.218 56.7867 119.218 55C119.218 52.5467 118.644 50.8533 117.498 49.92C116.351 48.9867 114.564 48.52 112.138 48.52C111.444 48.52 110.484 48.5733 109.258 48.68C109.364 50.2267 109.418 52.9467 109.418 56.84V59.84C110.591 60.5067 111.924 60.84 113.418 60.84ZM106.418 63.76V55.76C106.418 52.08 106.244 49.0133 105.898 46.56C107.871 46.24 109.858 46.08 111.858 46.08C119.004 46.08 122.578 48.96 122.578 54.72C122.578 57.4933 121.738 59.6133 120.058 61.08C118.404 62.5467 116.458 63.28 114.218 63.28C112.324 63.28 110.724 62.8533 109.418 62V64.88C109.418 68.48 109.671 71.12 110.178 72.8C109.698 73.0133 109.071 73.12 108.298 73.12C107.524 73.12 107.004 72.9467 106.738 72.6C106.471 72.2533 106.338 71.6667 106.338 70.84C106.338 70.4133 106.351 69.36 106.378 67.68C106.404 66 106.418 64.6933 106.418 63.76ZM135.494 73.28C132.401 73.28 129.934 72.32 128.094 70.4C126.254 68.48 125.334 65.9067 125.334 62.68C125.334 59.4267 126.254 56.84 128.094 54.92C129.934 53 132.401 52.04 135.494 52.04C138.614 52.04 141.094 53 142.934 54.92C144.801 56.84 145.734 59.4267 145.734 62.68C145.734 65.9067 144.801 68.48 142.934 70.4C141.094 72.32 138.614 73.28 135.494 73.28ZM142.534 63.24C142.534 61.72 142.321 60.3067 141.894 59C141.467 57.6933 140.694 56.5733 139.574 55.64C138.481 54.7067 137.134 54.24 135.534 54.24C133.374 54.24 131.654 54.9467 130.374 56.36C129.121 57.7733 128.494 59.5733 128.494 61.76C128.494 63.36 128.707 64.84 129.134 66.2C129.561 67.56 130.321 68.72 131.414 69.68C132.507 70.64 133.867 71.12 135.494 71.12C137.734 71.12 139.467 70.4 140.694 68.96C141.921 67.4933 142.534 65.5867 142.534 63.24ZM151.192 66.04V59.56C151.192 56.7867 151.112 54.3733 150.952 52.32C151.379 52.2667 151.899 52.24 152.512 52.24C153.739 52.24 154.352 52.64 154.352 53.44C154.352 53.5467 154.325 53.96 154.272 54.68C154.245 55.4 154.205 56.2933 154.152 57.36C154.099 58.4267 154.072 59.44 154.072 60.4V63.16C154.072 67.3733 154.152 69.92 154.312 70.8C155.219 70.8533 155.925 70.88 156.432 70.88C159.765 70.88 161.925 70.64 162.912 70.16C163.072 70.6667 163.152 71.1733 163.152 71.68C163.152 72.1067 163.059 72.4133 162.872 72.6C162.472 72.8933 160.752 73.04 157.712 73.04C157.125 73.04 156.152 73.0267 154.792 73C153.459 73 152.752 73 152.672 73C152.059 72.9733 151.645 72.8267 151.432 72.56C151.219 72.2933 151.112 71.8533 151.112 71.24C151.112 70.92 151.125 70.16 151.152 68.96C151.179 67.76 151.192 66.7867 151.192 66.04ZM169.661 54.6C169.741 55.24 169.781 57.3067 169.781 60.8H172.341C174.127 60.8 175.407 60.76 176.181 60.68C176.261 60.8933 176.301 61.1867 176.301 61.56C176.301 62.0933 176.181 62.4667 175.941 62.68C175.727 62.8667 175.381 62.9733 174.901 63C174.341 63.0267 173.581 63.04 172.621 63.04H169.781C169.781 67.3333 169.861 69.92 170.021 70.8C170.981 70.8533 171.754 70.88 172.341 70.88C175.861 70.88 178.167 70.64 179.261 70.16C179.447 70.64 179.541 71.1467 179.541 71.68C179.541 72.1067 179.434 72.4133 179.221 72.6C178.821 72.8933 177.007 73.04 173.781 73.04C173.141 73.04 172.114 73.0267 170.701 73C169.287 73 168.554 73 168.501 73C167.834 72.9733 167.381 72.8267 167.141 72.56C166.927 72.2933 166.821 71.8533 166.821 71.24C166.821 70.8667 166.834 70.0533 166.861 68.8C166.887 67.52 166.901 66.52 166.901 65.8V59.68C166.901 56.64 166.741 54.2533 166.421 52.52C169.034 52.3333 171.474 52.24 173.741 52.24C176.967 52.24 178.781 52.4 179.181 52.72C179.394 52.9067 179.501 53.2133 179.501 53.64C179.501 54.1733 179.407 54.68 179.221 55.16C177.941 54.7333 175.941 54.52 173.221 54.52C172.181 54.52 170.994 54.5467 169.661 54.6ZM206.29 51.68C205.837 50.8 205.023 50.08 203.85 49.52C202.677 48.9333 201.463 48.64 200.21 48.64C198.85 48.64 197.703 49.0133 196.77 49.76C195.863 50.5067 195.41 51.6 195.41 53.04C195.41 54.1333 195.743 55.04 196.41 55.76C197.103 56.4533 197.957 56.9467 198.97 57.24C199.983 57.5067 201.09 57.84 202.29 58.24C203.49 58.64 204.597 59.0533 205.61 59.48C206.623 59.9067 207.463 60.64 208.13 61.68C208.823 62.72 209.17 64.0133 209.17 65.56C209.17 66.9467 208.903 68.1733 208.37 69.24C207.837 70.28 207.117 71.0933 206.21 71.68C205.303 72.2667 204.317 72.7067 203.25 73C202.21 73.2667 201.103 73.4 199.93 73.4C197.85 73.4 196.01 73.04 194.41 72.32C192.837 71.5733 192.05 70.68 192.05 69.64C192.05 69.2933 192.157 68.9867 192.37 68.72C192.61 68.4267 192.837 68.2133 193.05 68.08C193.263 67.9467 193.61 67.76 194.09 67.52C194.597 68.5067 195.503 69.32 196.81 69.96C198.143 70.5733 199.49 70.88 200.85 70.88C202.343 70.88 203.623 70.48 204.69 69.68C205.757 68.8533 206.29 67.68 206.29 66.16C206.29 64.9067 205.81 63.92 204.85 63.2C203.917 62.4533 202.77 61.8933 201.41 61.52C200.077 61.1467 198.73 60.7333 197.37 60.28C196.037 59.8267 194.89 59.0667 193.93 58C192.997 56.9067 192.53 55.4667 192.53 53.68C192.53 51.2267 193.33 49.3467 194.93 48.04C196.557 46.7333 198.623 46.08 201.13 46.08C202.97 46.08 204.663 46.4 206.21 47.04C207.783 47.68 208.57 48.56 208.57 49.68C208.57 50.7467 207.81 51.4133 206.29 51.68ZM217.913 65.8V59.56C217.913 58.3333 217.886 56.68 217.833 54.6C214.713 54.6 212.646 54.64 211.633 54.72C211.58 54.5867 211.553 54.2533 211.553 53.72C211.553 53.24 211.66 52.9067 211.873 52.72C212.113 52.5333 212.486 52.44 212.993 52.44C213.206 52.44 213.726 52.44 214.553 52.44C215.406 52.4133 216.1 52.4 216.633 52.4H220.513C224.06 52.4 226.22 52.3733 226.993 52.32C227.046 52.5867 227.073 52.9067 227.073 53.28C227.073 54.16 226.593 54.6 225.633 54.6H220.993C220.993 54.8933 220.966 55.4 220.913 56.12C220.886 56.8133 220.86 57.5333 220.833 58.28C220.806 59.0267 220.793 59.7333 220.793 60.4V66.68C220.793 69.48 221.006 71.5333 221.433 72.84C221.033 73 220.446 73.08 219.673 73.08C218.953 73.08 218.46 72.9467 218.193 72.68C217.953 72.4133 217.833 71.96 217.833 71.32C217.833 71 217.846 70.1867 217.873 68.88C217.9 67.5733 217.913 66.5467 217.913 65.8ZM238.971 73.28C235.877 73.28 233.411 72.32 231.571 70.4C229.731 68.48 228.811 65.9067 228.811 62.68C228.811 59.4267 229.731 56.84 231.571 54.92C233.411 53 235.877 52.04 238.971 52.04C242.091 52.04 244.571 53 246.411 54.92C248.277 56.84 249.211 59.4267 249.211 62.68C249.211 65.9067 248.277 68.48 246.411 70.4C244.571 72.32 242.091 73.28 238.971 73.28ZM246.011 63.24C246.011 61.72 245.797 60.3067 245.371 59C244.944 57.6933 244.171 56.5733 243.051 55.64C241.957 54.7067 240.611 54.24 239.011 54.24C236.851 54.24 235.131 54.9467 233.851 56.36C232.597 57.7733 231.971 59.5733 231.971 61.76C231.971 63.36 232.184 64.84 232.611 66.2C233.037 67.56 233.797 68.72 234.891 69.68C235.984 70.64 237.344 71.12 238.971 71.12C241.211 71.12 242.944 70.4 244.171 68.96C245.397 67.4933 246.011 65.5867 246.011 63.24ZM266.748 70.2C267.335 70.7867 267.975 71.08 268.668 71.08C268.802 71.08 269.082 71.0533 269.508 71C269.695 71.3733 269.788 71.72 269.788 72.04C269.788 72.8667 268.922 73.28 267.188 73.28C266.415 73.28 265.668 73 264.948 72.44C264.228 71.8533 263.535 71.0267 262.868 69.96C262.202 68.8667 261.682 67.96 261.308 67.24C260.962 66.4933 260.535 65.5467 260.028 64.4C259.522 64.2933 259.268 64.0267 259.268 63.6C259.268 63.3333 259.362 62.9333 259.548 62.4C260.135 62.5333 260.642 62.6 261.068 62.6C262.295 62.6 263.295 62.2267 264.068 61.48C264.842 60.7067 265.228 59.6667 265.228 58.36C265.228 56.8133 264.802 55.7333 263.948 55.12C263.095 54.5067 261.788 54.2 260.028 54.2C259.868 54.2 259.068 54.24 257.628 54.32C257.735 55.5467 257.788 57.64 257.788 60.6V66.76C257.788 69.5333 257.988 71.5733 258.388 72.88C257.935 73.0133 257.348 73.08 256.628 73.08C255.908 73.08 255.415 72.9467 255.148 72.68C254.908 72.4133 254.788 71.96 254.788 71.32C254.788 71 254.802 70.1867 254.828 68.88C254.855 67.5733 254.868 66.5467 254.868 65.8V59.56C254.868 56.6267 254.722 54.24 254.428 52.4C255.868 52.16 257.548 52.04 259.468 52.04C265.442 52.04 268.428 54.1333 268.428 58.32C268.428 59.9733 267.948 61.32 266.988 62.36C266.055 63.4 264.802 64.0933 263.228 64.44C264.855 67.56 266.028 69.48 266.748 70.2ZM277.512 54.6C277.592 55.24 277.632 57.3067 277.632 60.8H280.192C281.979 60.8 283.259 60.76 284.032 60.68C284.112 60.8933 284.152 61.1867 284.152 61.56C284.152 62.0933 284.032 62.4667 283.792 62.68C283.579 62.8667 283.232 62.9733 282.752 63C282.192 63.0267 281.432 63.04 280.472 63.04H277.632C277.632 67.3333 277.712 69.92 277.872 70.8C278.832 70.8533 279.606 70.88 280.192 70.88C283.712 70.88 286.019 70.64 287.112 70.16C287.299 70.64 287.392 71.1467 287.392 71.68C287.392 72.1067 287.286 72.4133 287.072 72.6C286.672 72.8933 284.859 73.04 281.632 73.04C280.992 73.04 279.966 73.0267 278.552 73C277.139 73 276.406 73 276.352 73C275.686 72.9733 275.232 72.8267 274.992 72.56C274.779 72.2933 274.672 71.8533 274.672 71.24C274.672 70.8667 274.686 70.0533 274.712 68.8C274.739 67.52 274.752 66.52 274.752 65.8V59.68C274.752 56.64 274.592 54.2533 274.272 52.52C276.886 52.3333 279.326 52.24 281.592 52.24C284.819 52.24 286.632 52.4 287.032 52.72C287.246 52.9067 287.352 53.2133 287.352 53.64C287.352 54.1733 287.259 54.68 287.072 55.16C285.792 54.7333 283.792 54.52 281.072 54.52C280.032 54.52 278.846 54.5467 277.512 54.6Z" fill="white"/>
</svg>
