<svg width="26" height="27" viewBox="0 0 26 27" fill="none" xmlns="http://www.w3.org/2000/svg">
<rect width="25.5271" height="27" rx="4" fill="#DAEEFF"/>
<path d="M11.5302 20.2084H6.5625C6.24583 20.2084 5.96875 20.0834 5.73125 19.8334C5.49375 19.5834 5.375 19.2917 5.375 18.9584V6.83341C5.375 6.50008 5.47726 6.20841 5.68177 5.95841C5.88628 5.70841 6.06111 5.58341 6.20625 5.58341H10.2042C10.2965 5.0973 10.5241 4.698 10.887 4.3855C11.2498 4.073 11.6687 3.91675 12.1437 3.91675C12.6187 3.91675 13.0377 4.073 13.4005 4.3855C13.7634 4.698 13.991 5.0973 14.0833 5.58341H18.0812C18.3979 5.58341 18.675 5.70841 18.9125 5.95841C19.15 6.20841 19.2687 6.50008 19.2687 6.83341V11.0626H18.0812V6.83341H15.9833V9.54175H8.66042V6.83341H6.5625V18.9584H11.5302V20.2084ZM15.2708 19.6876L12.1042 16.3542L12.9552 15.4584L15.2708 17.8959L20.001 12.9167L20.8521 13.8126L15.2708 19.6876ZM12.5 6.75008C12.7243 6.75008 12.9123 6.67022 13.0641 6.5105C13.2158 6.35078 13.2917 6.15286 13.2917 5.91675C13.2917 5.68064 13.2158 5.48272 13.0641 5.323C12.9123 5.16328 12.7243 5.08341 12.5 5.08341C12.2757 5.08341 12.0877 5.16328 11.9359 5.323C11.7842 5.48272 11.7083 5.68064 11.7083 5.91675C11.7083 6.15286 11.7842 6.35078 11.9359 6.5105C12.0877 6.67022 12.2757 6.75008 12.5 6.75008Z" fill="#0C0F86"/>
</svg>
